<?xml version="1.0" standalone="no"?>
<!DOCTYPE svg PUBLIC "-//W3C//DTD SVG 20010904//EN"
 "http://www.w3.org/TR/2001/REC-SVG-20010904/DTD/svg10.dtd">
<svg version="1.0" xmlns="http://www.w3.org/2000/svg"
 width="400.000000pt" height="400.000000pt" viewBox="0 0 400.000000 400.000000"
 preserveAspectRatio="xMidYMid meet">

<g transform="translate(0.000000,400.000000) scale(0.100000,-0.100000)"
fill="#000000" stroke="none">
<path d="M1725 3984 c-867 -118 -1564 -797 -1705 -1659 -26 -154 -28 -491 -5
-635 133 -815 730 -1457 1531 -1645 218 -51 549 -62 764 -25 426 73 777 249
1077 541 377 365 588 840 610 1369 21 521 -176 1045 -538 1433 -326 349 -775
576 -1241 626 -130 15 -370 12 -493 -5z m135 -214 c0 -52 -3 -62 -25 -76 -29
-19 -70 -12 -84 14 -13 25 -18 106 -6 112 6 3 13 -18 17 -49 7 -61 16 -74 49
-69 22 3 24 8 27 71 4 83 22 80 22 -3z m170 23 c0 26 5 47 10 47 6 0 10 -30
10 -70 0 -38 -2 -70 -5 -70 -3 0 -28 24 -55 53 l-50 52 6 -51 c4 -33 2 -54 -5
-58 -8 -5 -11 17 -11 71 l0 77 50 -49 50 -49 0 47z m166 37 c13 0 24 -5 24
-11 0 -7 -10 -9 -25 -5 -23 6 -25 4 -25 -28 0 -49 -11 -96 -23 -96 -6 0 -7 23
-3 65 6 61 5 65 -14 65 -11 0 -20 5 -20 11 0 8 11 9 31 5 17 -3 42 -6 55 -6z
m182 -46 c12 -14 22 -31 22 -39 0 -30 -24 -64 -53 -76 -26 -11 -35 -10 -66 7
-28 15 -37 26 -39 51 -8 84 79 121 136 57z m-708 10 c0 -12 -3 -14 -13 -6 -16
14 -42 -1 -34 -21 3 -8 19 -17 36 -20 26 -5 31 -11 31 -35 0 -15 -5 -33 -12
-40 -15 -15 -68 -16 -68 -1 0 5 8 9 18 8 33 -3 42 1 42 20 0 12 -11 21 -32 27
-36 11 -49 44 -28 70 17 20 60 18 60 -2z m846 -28 c11 -8 15 -18 10 -23 -5 -4
-11 -2 -13 5 -3 6 -11 12 -18 12 -26 0 -26 -21 -1 -51 21 -25 24 -34 15 -50
-6 -11 -17 -23 -25 -26 -22 -8 -64 6 -64 22 0 19 7 19 26 0 16 -16 44 -10 44
10 0 6 -9 20 -20 30 -25 22 -26 61 -2 74 23 14 25 13 48 -3z m-978 -52 c23
-29 42 -58 42 -64 0 -18 -18 -11 -37 14 -23 31 -63 20 -63 -18 0 -14 -5 -28
-11 -32 -8 -5 -9 11 -4 57 8 74 14 99 23 98 4 0 26 -25 50 -55z m-218 -14 c0
-5 -6 -10 -12 -10 -24 0 -39 -16 -32 -34 5 -13 14 -16 38 -11 29 6 30 5 12
-10 -11 -8 -23 -15 -28 -15 -4 0 -3 -11 4 -25 9 -20 14 -22 30 -14 10 6 24 8
31 6 7 -2 -5 -12 -25 -22 -21 -10 -39 -17 -41 -14 -2 2 -15 32 -30 66 l-26 63
27 14 c32 18 52 20 52 6z m1388 -1 c18 -6 29 -15 26 -20 -3 -5 -13 -5 -25 1
-40 22 -54 -16 -16 -44 22 -16 22 -16 -9 -11 -26 5 -32 2 -37 -15 -4 -16 1
-24 18 -32 14 -6 22 -15 19 -19 -5 -9 -69 16 -69 28 0 15 49 123 55 123 4 0
21 -5 38 -11z m131 -63 c7 -9 8 -17 3 -20 -6 -3 -12 1 -16 9 -7 18 -33 20 -39
3 -2 -7 5 -26 16 -42 21 -30 17 -49 -16 -70 -19 -12 -67 10 -67 31 0 18 16 17
24 -2 7 -20 46 -20 46 0 0 9 -7 27 -16 40 -22 34 -10 65 25 65 16 0 34 -6 40
-14z m-1655 -7 c61 -28 55 -112 -11 -143 -19 -9 -36 -16 -38 -14 -14 19 -66
120 -64 122 5 4 83 46 86 46 1 0 13 -5 27 -11z m1760 -50 c20 -12 36 -25 36
-30 0 -12 -14 -11 -27 2 -9 9 -20 -3 -44 -45 -21 -38 -35 -54 -42 -47 -6 6 1
27 22 61 30 49 31 53 14 66 -28 21 2 16 41 -7z m-803 -40 c202 -20 365 -67
542 -155 463 -230 780 -674 848 -1189 16 -124 6 -393 -19 -510 -118 -545 -512
-986 -1036 -1159 -170 -56 -264 -70 -481 -70 -226 0 -319 15 -506 80 -231 80
-405 190 -585 369 -236 235 -379 510 -435 836 -18 106 -21 150 -16 304 8 246
45 408 141 610 258 544 779 879 1387 894 31 0 103 -4 160 -10z m879 -72 c-32
-44 -37 -66 -18 -85 27 -27 49 -12 115 77 2 2 6 2 9 -2 9 -8 -47 -84 -73 -98
-31 -17 -83 15 -83 51 0 30 57 113 71 104 5 -3 -4 -24 -21 -47z m-1989 -70
c-7 -7 -19 -4 -36 7 -25 16 -28 17 -45 1 -15 -14 -17 -22 -9 -42 9 -25 5 -43
-7 -31 -7 7 -33 116 -34 140 0 13 14 8 70 -24 47 -27 68 -44 61 -51z m-225 36
c-3 -8 9 -31 31 -53 49 -53 66 -80 58 -88 -4 -4 -19 7 -33 24 -15 17 -39 45
-55 62 -20 24 -26 39 -21 57 3 14 10 22 16 19 5 -3 7 -13 4 -21z m2421 -65
c38 -37 43 -74 13 -105 -29 -32 -57 -37 -88 -17 -31 21 -52 40 -52 49 0 8 83
105 90 105 2 0 19 -14 37 -32z m-2449 -65 c3 -30 6 -33 38 -33 24 0 34 -4 31
-12 -2 -9 -19 -12 -48 -9 l-44 3 23 -25 c16 -17 20 -27 12 -32 -7 -4 -32 15
-61 46 l-50 54 27 23 c37 33 68 26 72 -15z m2515 -97 c-42 -40 -73 -57 -73
-40 0 13 106 102 113 94 5 -4 -13 -28 -40 -54z m-2628 -16 c33 -12 66 -23 74
-26 10 -3 11 -8 4 -15 -6 -6 -19 -6 -35 0 -19 7 -29 6 -41 -6 -14 -14 -14 -19
-1 -44 7 -15 10 -30 6 -33 -8 -5 -72 115 -72 134 0 13 -4 13 65 -10z m2755
-25 c0 -6 -60 -127 -66 -134 -1 -1 -7 0 -13 4 -8 4 -6 15 4 34 13 26 13 30 -3
44 -11 10 -27 13 -47 10 -49 -9 -19 10 43 28 63 18 82 22 82 14z m-2873 -56
c-10 -18 -9 -23 13 -37 44 -30 75 -60 68 -67 -3 -3 -29 10 -57 31 -50 35 -53
36 -66 18 -7 -11 -17 -16 -21 -11 -4 4 2 17 13 30 11 12 26 32 32 45 7 12 16
20 21 17 6 -4 5 -14 -3 -26z m2939 -110 c-8 -35 -13 -65 -12 -66 1 -1 19 9 40
23 21 14 40 23 43 20 8 -8 9 -7 -59 -50 -64 -40 -65 -39 -43 44 8 30 13 55 12
57 -2 1 -20 -9 -41 -23 -21 -14 -40 -23 -43 -20 -8 7 -10 5 56 49 30 20 56 35
58 33 2 -2 -3 -32 -11 -67z m-3016 4 c0 -3 -7 -14 -16 -24 -14 -16 -14 -18 5
-28 16 -9 22 -7 34 10 9 12 18 16 21 10 4 -5 2 -12 -4 -16 -17 -10 -11 -34 10
-45 17 -9 22 -7 32 14 6 14 15 23 19 20 4 -2 -1 -20 -12 -39 l-20 -34 -57 36
c-31 20 -58 37 -60 39 -7 5 29 64 38 64 6 0 10 -3 10 -7z m3149 -134 c23 -43
21 -66 -3 -34 -13 18 -15 17 -59 -8 -48 -29 -67 -33 -67 -17 0 5 23 21 50 35
46 23 50 28 44 52 -10 37 9 22 35 -28z m-3191 -18 c3 -21 7 -23 44 -17 57 9
45 -16 -13 -28 l-44 -9 34 -14 c23 -10 31 -17 24 -24 -7 -7 -30 -1 -72 20 -65
33 -67 40 -28 89 16 21 52 10 55 -17z m3242 -81 c0 -16 -123 -69 -134 -59 -11
10 -15 8 54 41 60 29 80 34 80 18z m-3343 -33 c-52 -41 -9 -108 63 -97 19 3
30 19 30 48 0 12 5 22 10 22 20 0 10 -51 -15 -75 -30 -30 -64 -32 -99 -4 -18
14 -26 30 -26 53 0 35 26 80 41 70 6 -3 4 -11 -4 -17z m3373 -46 c0 -5 -24
-19 -52 -29 -49 -19 -53 -22 -50 -51 1 -17 0 -31 -3 -31 -5 0 -37 72 -33 74 2
1 26 11 53 23 55 23 85 28 85 14z m-3434 -106 c-3 -8 -9 -21 -12 -29 -3 -8 3
-16 16 -19 16 -4 23 1 30 19 13 34 24 30 17 -6 -4 -16 -2 -30 2 -30 5 0 16 -3
25 -6 10 -4 17 2 22 20 3 14 11 26 16 26 6 0 7 -7 4 -16 -3 -9 -9 -27 -12 -40
-4 -14 -11 -23 -18 -20 -6 2 -36 13 -66 22 -30 10 -57 19 -58 20 -8 5 20 74
30 74 6 0 7 -7 4 -15z m3484 -14 c0 -5 3 -23 7 -41 4 -24 3 -31 -5 -26 -7 4
-12 16 -12 27 0 20 -8 23 -33 13 -9 -3 -13 -15 -10 -32 3 -27 3 -27 -9 -4 -7
15 -19 22 -32 20 -18 -3 -20 -9 -18 -38 3 -27 1 -32 -8 -24 -7 7 -13 26 -13
44 -2 30 1 33 53 50 64 21 80 23 80 11z m-3518 -119 c-16 -5 -15 -42 1 -42 8
0 22 9 32 20 25 28 63 26 76 -4 12 -25 -2 -66 -21 -66 -13 0 -13 6 2 30 10 15
10 22 0 32 -9 9 -18 6 -40 -15 -31 -29 -51 -34 -70 -15 -24 24 -5 87 22 71 6
-4 6 -8 -2 -11z m3552 -18 c9 -24 7 -54 -4 -54 -5 0 -9 10 -7 22 1 14 -4 23
-16 26 -13 3 -19 -5 -23 -28 -9 -42 -38 -56 -70 -35 -18 11 -24 24 -22 41 2
14 8 24 13 24 6 -1 9 -12 7 -25 -7 -52 41 -38 52 15 5 25 10 30 35 30 17 0 31
-6 35 -16z m-3550 -371 c-10 -242 19 -443 96 -667 35 -102 43 -143 20 -106
-24 38 -92 270 -111 376 -30 164 -32 554 -4 554 3 0 2 -71 -1 -157z m3540 -73
c0 -201 -11 -293 -54 -461 -27 -106 -80 -250 -90 -244 -4 3 9 53 30 112 83
237 119 533 91 756 -8 62 -3 78 13 50 6 -11 10 -99 10 -213z m-3245 -876 c12
-20 19 -39 15 -43 -4 -3 -9 -1 -11 5 -2 6 -9 18 -16 27 -10 14 -14 14 -31 2
-16 -12 -17 -17 -6 -30 7 -8 10 -18 6 -22 -3 -4 -13 2 -20 13 -13 16 -18 17
-35 7 -25 -15 -41 -17 -41 -4 0 5 20 20 45 32 25 13 51 29 57 36 14 17 13 18
37 -23z m3080 -10 c1 -1 0 -8 -4 -14 -4 -7 -18 -9 -35 -5 -23 5 -31 2 -40 -15
-9 -17 -8 -25 4 -39 17 -18 21 -41 9 -40 -5 0 -28 30 -51 65 l-44 66 79 -7
c43 -4 80 -9 82 -11z m-172 -103 c3 -12 11 -17 19 -14 39 15 58 -48 26 -87
l-18 -22 -57 38 c-31 22 -56 42 -57 45 0 4 9 18 21 33 24 31 59 34 66 7z
m-2837 3 c0 -12 -73 -124 -81 -124 -13 0 -11 24 3 38 9 9 9 17 -1 36 -12 21
-17 23 -39 15 -16 -6 -29 -6 -35 0 -5 5 15 15 55 24 71 17 98 20 98 11z m95
-119 c25 -24 33 -55 15 -55 -5 0 -10 9 -10 20 0 32 -43 47 -75 26 -14 -10 -29
-24 -32 -32 -9 -24 5 -60 29 -72 18 -8 19 -11 6 -11 -26 -1 -58 39 -58 71 0
36 40 78 75 78 14 0 37 -11 50 -25z m2679 -6 c35 -28 36 -80 1 -114 -30 -31
-66 -32 -99 -2 -38 34 -38 75 -1 112 30 30 64 32 99 4z m-2604 -82 c0 -7 -16
-28 -35 -47 -37 -35 -43 -58 -23 -78 21 -21 45 -13 86 29 22 23 42 37 46 31 7
-12 -78 -92 -97 -92 -25 0 -67 41 -67 64 0 12 17 41 38 64 39 43 52 50 52 29z
m2467 -59 c37 -40 34 -77 -9 -118 l-33 -30 -47 52 -47 53 32 33 c37 38 74 42
104 10z m-2327 -64 c0 -3 -18 -28 -40 -54 l-41 -48 23 -16 c12 -9 19 -18 16
-22 -7 -7 -57 27 -58 39 0 14 75 106 88 106 6 1 12 -2 12 -5z m2169 -38 c6 -7
10 -24 9 -37 -2 -19 3 -24 26 -29 17 -3 29 -9 27 -15 -2 -11 -11 -11 -61 0
l-35 7 23 -24 c25 -28 28 -38 9 -38 -12 0 -87 92 -87 107 0 10 51 42 66 43 6
0 17 -6 23 -14z m-2051 -48 c12 -6 22 -15 22 -20 0 -11 -14 -10 -27 3 -8 8
-20 -2 -45 -40 -18 -28 -39 -51 -45 -51 -19 0 -16 8 23 63 31 43 34 51 20 59
-9 5 -16 14 -16 20 0 6 10 3 23 -6 12 -9 32 -21 45 -28z m1862 -18 c-9 -17 -7
-18 24 -13 70 11 115 -79 64 -127 -70 -65 -167 0 -125 84 8 17 18 44 21 59 4
15 11 25 16 22 7 -4 6 -13 0 -25z m-1763 -53 c-3 -8 -8 -44 -12 -81 -5 -43
-11 -65 -19 -63 -6 2 -10 18 -8 35 4 41 -30 63 -58 37 -10 -9 -24 -15 -31 -13
-7 2 17 25 52 51 67 48 85 56 76 34z m1673 -47 c0 -5 -11 -10 -23 -10 -34 0
-61 -33 -52 -62 18 -56 59 -74 95 -38 10 10 22 16 24 11 7 -11 -22 -37 -50
-45 -50 -15 -104 42 -91 96 10 36 97 80 97 48z m-1529 -23 c45 -30 51 -76 15
-112 -14 -14 -35 -25 -46 -25 -17 0 -74 23 -88 35 -8 7 60 125 72 125 7 0 28
-10 47 -23z m257 -101 c17 -17 0 -56 -25 -56 -11 0 -14 -6 -9 -20 3 -11 9 -29
12 -40 10 -31 -15 -24 -27 8 -21 57 -21 58 -31 25 -9 -34 -28 -45 -28 -17 0 9
7 41 16 71 16 54 17 55 47 49 18 -4 38 -13 45 -20z m1005 -36 c17 -59 17 -59
49 -55 l33 5 -30 -14 c-16 -9 -35 -15 -41 -16 -6 0 -18 26 -28 58 -10 31 -21
63 -23 70 -3 6 1 12 9 12 9 0 21 -22 31 -60z m-98 -28 c22 -31 42 -60 43 -64
8 -17 -21 -7 -37 13 -23 28 -61 18 -61 -16 0 -13 -4 -27 -10 -30 -5 -3 -10 1
-10 11 0 30 23 144 29 144 3 -1 24 -26 46 -58z m-787 42 c33 -9 27 -24 -8 -17
-26 5 -30 2 -30 -15 0 -12 9 -23 20 -27 28 -9 25 -23 -4 -18 -17 4 -25 0 -29
-16 -6 -24 0 -31 25 -31 10 0 18 -5 18 -11 0 -10 -56 -6 -67 5 -2 2 2 33 8 70
13 69 17 73 67 60z m647 -61 c3 -27 8 -58 11 -70 6 -31 -1 -29 -56 17 -26 22
-50 40 -54 40 -3 0 -3 -20 1 -45 4 -31 2 -45 -6 -45 -6 0 -11 11 -11 24 0 13
-3 45 -7 71 l-6 49 29 -22 c16 -12 42 -32 58 -44 l29 -22 -6 47 c-4 27 -3 47
3 47 5 0 12 -21 15 -47z m-460 26 c11 -17 1 -19 -33 -7 -27 10 -34 9 -51 -7
-28 -24 -28 -80 -2 -95 36 -19 61 -13 61 15 0 16 6 25 15 25 12 0 14 -7 9 -27
-10 -40 -12 -43 -40 -43 -78 0 -124 80 -74 130 22 22 104 29 115 9z m85 -69
c0 -58 -3 -70 -16 -70 -14 0 -16 8 -10 53 3 28 6 60 6 70 0 9 5 17 10 17 6 0
10 -30 10 -70z m189 44 c40 -51 16 -110 -51 -120 -30 -5 -41 -2 -62 19 -53 53
-22 127 53 127 31 0 44 -6 60 -26z"/>
<path d="M2283 3788 c-34 -43 -14 -108 32 -108 45 0 72 71 39 104 -19 19 -58
21 -71 4z"/>
<path d="M1490 3715 c0 -8 4 -15 10 -15 5 0 7 7 4 15 -4 8 -8 15 -10 15 -2 0
-4 -7 -4 -15z"/>
<path d="M1128 3608 c-34 -12 -34 -14 -2 -72 22 -39 28 -44 45 -36 32 18 41
46 25 79 -19 35 -33 41 -68 29z"/>
<path d="M1059 2747 c-115 -33 -187 -106 -209 -214 -21 -98 9 -192 81 -259 26
-23 98 -67 169 -101 69 -34 139 -76 157 -93 66 -64 50 -155 -33 -192 -68 -30
-203 -22 -294 16 -36 15 -71 30 -77 33 -10 4 -13 -15 -13 -76 0 -74 2 -82 24
-97 43 -27 128 -44 234 -45 119 -1 190 17 260 65 123 84 148 281 51 399 -31
38 -119 100 -168 118 -68 26 -172 84 -196 109 -40 42 -45 106 -12 146 14 17
44 36 66 44 56 18 201 8 269 -19 l52 -21 0 81 0 80 -37 16 c-50 22 -260 28
-324 10z"/>
<path d="M1836 2735 c-3 -9 -6 -26 -6 -37 0 -12 -70 -228 -155 -481 -85 -253
-155 -466 -155 -473 0 -11 19 -14 80 -14 l79 0 44 138 43 137 180 3 179 2 46
-137 45 -138 92 -3 91 -3 -130 383 c-72 211 -150 439 -173 508 l-43 125 -105
3 c-90 2 -107 0 -112 -13z m183 -364 c33 -106 58 -197 55 -202 -3 -5 -61 -9
-130 -9 -103 0 -124 3 -124 15 0 8 20 79 44 157 24 79 52 172 62 207 21 76 13
91 93 -168z"/>
<path d="M2500 2240 l0 -510 308 0 309 0 9 75 10 75 -231 2 -230 3 -3 143 -3
142 201 0 200 0 0 80 0 80 -200 0 -200 0 0 130 0 130 221 0 221 0 -7 73 c-4
39 -9 75 -12 80 -2 4 -137 7 -299 7 l-294 0 0 -510z"/>
<path d="M1220 1518 c1 -36 42 -100 77 -121 l38 -22 -57 -3 c-57 -3 -58 -4
-58 -32 0 -28 1 -29 58 -32 l57 -3 -37 -22 c-37 -22 -60 -55 -72 -105 -6 -26
-4 -28 24 -28 24 0 33 6 41 27 12 31 37 63 51 63 4 0 8 -20 8 -45 0 -43 1 -45
30 -45 29 0 30 2 30 45 0 25 4 45 9 45 13 0 61 -59 61 -76 0 -9 11 -14 30 -14
24 0 30 4 30 21 0 39 -58 119 -87 119 -7 0 -13 5 -13 10 0 6 23 10 50 10 49 0
50 1 50 30 0 30 -1 30 -52 30 l-53 0 38 31 c41 33 67 76 67 109 0 15 -6 20
-29 20 -22 0 -30 -6 -35 -25 -7 -27 -39 -65 -56 -65 -5 0 -10 20 -10 45 0 43
-1 45 -30 45 -29 0 -30 -2 -30 -45 0 -25 -4 -45 -8 -45 -14 0 -39 32 -51 63
-8 21 -17 27 -41 27 -17 0 -30 -5 -30 -12z"/>
<path d="M1692 1393 c2 -84 9 -148 17 -164 22 -45 87 -79 151 -79 65 0 110 23
140 72 17 29 20 51 20 171 l0 137 -29 0 -29 0 -4 -134 c-3 -126 -4 -136 -27
-160 -19 -20 -34 -26 -67 -26 -91 0 -104 24 -104 195 l0 125 -36 0 -36 0 4
-137z"/>
<path d="M2050 1505 c0 -23 4 -24 63 -27 l62 -3 3 -162 2 -163 30 0 30 0 2
163 3 162 63 3 c58 3 62 4 62 27 l0 25 -160 0 -160 0 0 -25z"/>
<path d="M2400 1340 l0 -190 29 0 c17 0 31 6 35 16 3 9 6 67 6 131 l0 115 107
-131 c81 -99 112 -131 130 -131 l23 0 0 190 0 190 -30 0 -30 0 0 -125 c0 -69
-3 -125 -7 -125 -5 1 -52 57 -106 125 -86 109 -103 125 -128 125 l-29 0 0
-190z"/>
<path d="M922 3434 c3 -17 21 -21 26 -6 1 5 -4 12 -13 16 -11 4 -15 1 -13 -10z"/>
<path d="M3155 3329 c-39 -39 -39 -41 -21 -55 43 -31 106 -4 106 47 0 14 -29
49 -41 49 -3 0 -23 -18 -44 -41z"/>
<path d="M721 3306 c-9 -10 -8 -16 4 -26 19 -16 41 1 32 24 -8 20 -21 20 -36
2z"/>
<path d="M636 3155 c4 -8 10 -12 15 -9 14 8 10 24 -6 24 -9 0 -12 -6 -9 -15z"/>
<path d="M3356 3125 c4 -8 10 -12 15 -9 14 8 10 24 -6 24 -9 0 -12 -6 -9 -15z"/>
<path d="M374 2845 c-7 -18 3 -35 21 -35 18 0 26 15 19 34 -8 20 -33 21 -40 1z"/>
<path d="M3492 1088 c5 -15 28 -23 28 -10 0 5 -7 13 -16 16 -10 4 -14 1 -12
-6z"/>
<path d="M3384 985 c-4 -10 -1 -21 7 -26 23 -14 31 -10 27 13 -4 27 -26 35
-34 13z"/>
<path d="M3435 950 c-8 -13 13 -40 31 -40 8 0 14 10 14 25 0 18 -5 25 -19 25
-11 0 -23 -5 -26 -10z"/>
<path d="M541 981 c-8 -6 -9 -11 -3 -15 6 -3 14 -1 17 5 9 14 2 20 -14 10z"/>
<path d="M3294 872 c-6 -4 -16 -17 -22 -29 -10 -18 -8 -26 14 -52 29 -35 54
-39 77 -13 23 26 21 55 -6 80 -24 23 -44 27 -63 14z"/>
<path d="M3145 720 c-18 -20 -18 -21 20 -60 36 -37 40 -39 57 -23 24 21 23 58
-2 83 -26 26 -52 25 -75 0z"/>
<path d="M3023 614 c-3 -8 1 -22 10 -31 14 -14 16 -13 26 6 7 12 9 26 6 31
-10 15 -35 12 -42 -6z"/>
<path d="M2880 520 c-25 -25 -25 -27 0 -67 23 -38 57 -44 83 -15 22 25 21 44
-4 76 -24 31 -52 33 -79 6z"/>
<path d="M1077 484 c-8 -8 1 -24 14 -24 5 0 9 7 9 15 0 15 -12 20 -23 9z"/>
<path d="M1200 399 c-18 -42 -19 -53 -8 -60 38 -25 107 25 94 68 -5 16 -43 43
-60 43 -2 0 -13 -23 -26 -51z"/>
<path d="M1470 342 c0 -6 -3 -18 -6 -27 -5 -13 -2 -16 17 -13 29 4 34 41 7 46
-10 2 -18 -1 -18 -6z"/>
<path d="M2390 283 c0 -13 5 -23 10 -23 13 0 13 11 0 30 -8 12 -10 11 -10 -7z"/>
<path d="M2018 269 c-21 -12 -25 -78 -6 -97 19 -19 66 -15 78 7 33 63 -16 123
-72 90z"/>
</g>
</svg>
